<mxfile host="app.diagrams.net" agent="Mozilla/5.0 (Windows NT 10.0; Win64; x64) AppleWebKit/537.36 (KHTML, like Gecko) Chrome/131.0.0.0 Safari/537.36" version="25.0.1">
  <diagram name="Trang-1" id="5i5Q3f5rP7n3JAHvkYBK">
    <mxGraphModel dx="1235" dy="614" grid="1" gridSize="10" guides="1" tooltips="1" connect="1" arrows="1" fold="1" page="1" pageScale="1" pageWidth="827" pageHeight="1169" math="0" shadow="0">
      <root>
        <mxCell id="0" />
        <mxCell id="1" parent="0" />
        <mxCell id="oViv8RQ6QmmxBzkZSsDY-3" value="" style="edgeStyle=orthogonalEdgeStyle;rounded=0;orthogonalLoop=1;jettySize=auto;html=1;" edge="1" parent="1" source="oViv8RQ6QmmxBzkZSsDY-1" target="oViv8RQ6QmmxBzkZSsDY-2">
          <mxGeometry relative="1" as="geometry" />
        </mxCell>
        <mxCell id="oViv8RQ6QmmxBzkZSsDY-1" value="Start" style="ellipse;whiteSpace=wrap;html=1;" vertex="1" parent="1">
          <mxGeometry x="354" y="50" width="120" height="80" as="geometry" />
        </mxCell>
        <mxCell id="oViv8RQ6QmmxBzkZSsDY-11" value="" style="edgeStyle=orthogonalEdgeStyle;rounded=0;orthogonalLoop=1;jettySize=auto;html=1;" edge="1" parent="1" source="oViv8RQ6QmmxBzkZSsDY-2" target="oViv8RQ6QmmxBzkZSsDY-10">
          <mxGeometry relative="1" as="geometry" />
        </mxCell>
        <mxCell id="oViv8RQ6QmmxBzkZSsDY-2" value="int n, sum, count, countOfPrime" style="shape=parallelogram;perimeter=parallelogramPerimeter;whiteSpace=wrap;html=1;fixedSize=1;" vertex="1" parent="1">
          <mxGeometry x="304" y="190" width="219" height="60" as="geometry" />
        </mxCell>
        <mxCell id="oViv8RQ6QmmxBzkZSsDY-13" value="" style="edgeStyle=orthogonalEdgeStyle;rounded=0;orthogonalLoop=1;jettySize=auto;html=1;" edge="1" parent="1" source="oViv8RQ6QmmxBzkZSsDY-10" target="oViv8RQ6QmmxBzkZSsDY-12">
          <mxGeometry relative="1" as="geometry" />
        </mxCell>
        <mxCell id="oViv8RQ6QmmxBzkZSsDY-14" value="Đúng" style="edgeLabel;html=1;align=center;verticalAlign=middle;resizable=0;points=[];" vertex="1" connectable="0" parent="oViv8RQ6QmmxBzkZSsDY-13">
          <mxGeometry x="-0.15" y="3" relative="1" as="geometry">
            <mxPoint as="offset" />
          </mxGeometry>
        </mxCell>
        <mxCell id="oViv8RQ6QmmxBzkZSsDY-18" value="" style="edgeStyle=orthogonalEdgeStyle;rounded=0;orthogonalLoop=1;jettySize=auto;html=1;" edge="1" parent="1" source="oViv8RQ6QmmxBzkZSsDY-10" target="oViv8RQ6QmmxBzkZSsDY-17">
          <mxGeometry relative="1" as="geometry" />
        </mxCell>
        <mxCell id="oViv8RQ6QmmxBzkZSsDY-19" value="Sai" style="edgeLabel;html=1;align=center;verticalAlign=middle;resizable=0;points=[];" vertex="1" connectable="0" parent="oViv8RQ6QmmxBzkZSsDY-18">
          <mxGeometry x="-0.0489" y="1" relative="1" as="geometry">
            <mxPoint as="offset" />
          </mxGeometry>
        </mxCell>
        <mxCell id="oViv8RQ6QmmxBzkZSsDY-10" value="countOfPrime == 20" style="rhombus;whiteSpace=wrap;html=1;" vertex="1" parent="1">
          <mxGeometry x="294" y="330" width="240" height="80" as="geometry" />
        </mxCell>
        <mxCell id="oViv8RQ6QmmxBzkZSsDY-16" value="" style="edgeStyle=orthogonalEdgeStyle;rounded=0;orthogonalLoop=1;jettySize=auto;html=1;" edge="1" parent="1" source="oViv8RQ6QmmxBzkZSsDY-12" target="oViv8RQ6QmmxBzkZSsDY-15">
          <mxGeometry relative="1" as="geometry" />
        </mxCell>
        <mxCell id="oViv8RQ6QmmxBzkZSsDY-12" value="sum" style="whiteSpace=wrap;html=1;" vertex="1" parent="1">
          <mxGeometry x="630" y="340" width="120" height="60" as="geometry" />
        </mxCell>
        <mxCell id="oViv8RQ6QmmxBzkZSsDY-15" value="End" style="ellipse;whiteSpace=wrap;html=1;" vertex="1" parent="1">
          <mxGeometry x="630" y="450" width="120" height="80" as="geometry" />
        </mxCell>
        <mxCell id="oViv8RQ6QmmxBzkZSsDY-21" value="" style="edgeStyle=orthogonalEdgeStyle;rounded=0;orthogonalLoop=1;jettySize=auto;html=1;" edge="1" parent="1" source="oViv8RQ6QmmxBzkZSsDY-17" target="oViv8RQ6QmmxBzkZSsDY-20">
          <mxGeometry relative="1" as="geometry" />
        </mxCell>
        <mxCell id="oViv8RQ6QmmxBzkZSsDY-17" value="n++" style="whiteSpace=wrap;html=1;" vertex="1" parent="1">
          <mxGeometry x="354" y="500" width="120" height="60" as="geometry" />
        </mxCell>
        <mxCell id="oViv8RQ6QmmxBzkZSsDY-23" value="" style="edgeStyle=orthogonalEdgeStyle;rounded=0;orthogonalLoop=1;jettySize=auto;html=1;" edge="1" parent="1" source="oViv8RQ6QmmxBzkZSsDY-20" target="oViv8RQ6QmmxBzkZSsDY-22">
          <mxGeometry relative="1" as="geometry" />
        </mxCell>
        <mxCell id="oViv8RQ6QmmxBzkZSsDY-20" value="int i = 1" style="shape=parallelogram;perimeter=parallelogramPerimeter;whiteSpace=wrap;html=1;fixedSize=1;" vertex="1" parent="1">
          <mxGeometry x="354" y="610" width="120" height="60" as="geometry" />
        </mxCell>
        <mxCell id="oViv8RQ6QmmxBzkZSsDY-30" value="" style="edgeStyle=orthogonalEdgeStyle;rounded=0;orthogonalLoop=1;jettySize=auto;html=1;" edge="1" parent="1" source="oViv8RQ6QmmxBzkZSsDY-22" target="oViv8RQ6QmmxBzkZSsDY-29">
          <mxGeometry relative="1" as="geometry" />
        </mxCell>
        <mxCell id="oViv8RQ6QmmxBzkZSsDY-31" value="Đúng" style="edgeLabel;html=1;align=center;verticalAlign=middle;resizable=0;points=[];" vertex="1" connectable="0" parent="oViv8RQ6QmmxBzkZSsDY-30">
          <mxGeometry x="-0.105" y="1" relative="1" as="geometry">
            <mxPoint as="offset" />
          </mxGeometry>
        </mxCell>
        <mxCell id="oViv8RQ6QmmxBzkZSsDY-42" value="" style="edgeStyle=orthogonalEdgeStyle;rounded=0;orthogonalLoop=1;jettySize=auto;html=1;" edge="1" parent="1" source="oViv8RQ6QmmxBzkZSsDY-22" target="oViv8RQ6QmmxBzkZSsDY-41">
          <mxGeometry relative="1" as="geometry" />
        </mxCell>
        <mxCell id="oViv8RQ6QmmxBzkZSsDY-49" value="Sai" style="edgeLabel;html=1;align=center;verticalAlign=middle;resizable=0;points=[];" vertex="1" connectable="0" parent="oViv8RQ6QmmxBzkZSsDY-42">
          <mxGeometry x="-0.0044" y="1" relative="1" as="geometry">
            <mxPoint as="offset" />
          </mxGeometry>
        </mxCell>
        <mxCell id="oViv8RQ6QmmxBzkZSsDY-22" value="i &amp;lt;= n" style="rhombus;whiteSpace=wrap;html=1;" vertex="1" parent="1">
          <mxGeometry x="374" y="740" width="80" height="80" as="geometry" />
        </mxCell>
        <mxCell id="oViv8RQ6QmmxBzkZSsDY-33" value="" style="edgeStyle=orthogonalEdgeStyle;rounded=0;orthogonalLoop=1;jettySize=auto;html=1;" edge="1" parent="1" source="oViv8RQ6QmmxBzkZSsDY-29" target="oViv8RQ6QmmxBzkZSsDY-32">
          <mxGeometry relative="1" as="geometry" />
        </mxCell>
        <mxCell id="oViv8RQ6QmmxBzkZSsDY-34" value="Đúng" style="edgeLabel;html=1;align=center;verticalAlign=middle;resizable=0;points=[];" vertex="1" connectable="0" parent="oViv8RQ6QmmxBzkZSsDY-33">
          <mxGeometry x="-0.0458" relative="1" as="geometry">
            <mxPoint y="1" as="offset" />
          </mxGeometry>
        </mxCell>
        <mxCell id="oViv8RQ6QmmxBzkZSsDY-36" value="" style="edgeStyle=orthogonalEdgeStyle;rounded=0;orthogonalLoop=1;jettySize=auto;html=1;" edge="1" parent="1" source="oViv8RQ6QmmxBzkZSsDY-29" target="oViv8RQ6QmmxBzkZSsDY-35">
          <mxGeometry relative="1" as="geometry" />
        </mxCell>
        <mxCell id="oViv8RQ6QmmxBzkZSsDY-37" value="Sai" style="edgeLabel;html=1;align=center;verticalAlign=middle;resizable=0;points=[];" vertex="1" connectable="0" parent="oViv8RQ6QmmxBzkZSsDY-36">
          <mxGeometry x="-0.1706" y="-4" relative="1" as="geometry">
            <mxPoint as="offset" />
          </mxGeometry>
        </mxCell>
        <mxCell id="oViv8RQ6QmmxBzkZSsDY-29" value="n % i == 0" style="rhombus;whiteSpace=wrap;html=1;" vertex="1" parent="1">
          <mxGeometry x="374" y="900" width="80" height="80" as="geometry" />
        </mxCell>
        <mxCell id="oViv8RQ6QmmxBzkZSsDY-40" style="edgeStyle=orthogonalEdgeStyle;rounded=0;orthogonalLoop=1;jettySize=auto;html=1;entryX=0.5;entryY=1;entryDx=0;entryDy=0;" edge="1" parent="1" source="oViv8RQ6QmmxBzkZSsDY-32" target="oViv8RQ6QmmxBzkZSsDY-35">
          <mxGeometry relative="1" as="geometry" />
        </mxCell>
        <mxCell id="oViv8RQ6QmmxBzkZSsDY-32" value="count++" style="whiteSpace=wrap;html=1;" vertex="1" parent="1">
          <mxGeometry x="354" y="1070" width="120" height="60" as="geometry" />
        </mxCell>
        <mxCell id="oViv8RQ6QmmxBzkZSsDY-39" style="edgeStyle=orthogonalEdgeStyle;rounded=0;orthogonalLoop=1;jettySize=auto;html=1;entryX=1;entryY=0.5;entryDx=0;entryDy=0;exitX=0.5;exitY=0;exitDx=0;exitDy=0;" edge="1" parent="1" source="oViv8RQ6QmmxBzkZSsDY-35" target="oViv8RQ6QmmxBzkZSsDY-22">
          <mxGeometry relative="1" as="geometry">
            <Array as="points">
              <mxPoint x="570" y="780" />
            </Array>
          </mxGeometry>
        </mxCell>
        <mxCell id="oViv8RQ6QmmxBzkZSsDY-35" value="i++" style="whiteSpace=wrap;html=1;" vertex="1" parent="1">
          <mxGeometry x="510" y="910" width="120" height="60" as="geometry" />
        </mxCell>
        <mxCell id="oViv8RQ6QmmxBzkZSsDY-43" style="edgeStyle=orthogonalEdgeStyle;rounded=0;orthogonalLoop=1;jettySize=auto;html=1;entryX=0;entryY=0.5;entryDx=0;entryDy=0;" edge="1" parent="1" source="oViv8RQ6QmmxBzkZSsDY-41" target="oViv8RQ6QmmxBzkZSsDY-10">
          <mxGeometry relative="1" as="geometry" />
        </mxCell>
        <mxCell id="oViv8RQ6QmmxBzkZSsDY-48" value="Sai" style="edgeLabel;html=1;align=center;verticalAlign=middle;resizable=0;points=[];" vertex="1" connectable="0" parent="oViv8RQ6QmmxBzkZSsDY-43">
          <mxGeometry x="-0.3772" y="2" relative="1" as="geometry">
            <mxPoint y="1" as="offset" />
          </mxGeometry>
        </mxCell>
        <mxCell id="oViv8RQ6QmmxBzkZSsDY-45" value="" style="edgeStyle=orthogonalEdgeStyle;rounded=0;orthogonalLoop=1;jettySize=auto;html=1;" edge="1" parent="1" source="oViv8RQ6QmmxBzkZSsDY-41" target="oViv8RQ6QmmxBzkZSsDY-44">
          <mxGeometry relative="1" as="geometry" />
        </mxCell>
        <mxCell id="oViv8RQ6QmmxBzkZSsDY-47" value="Đúng" style="edgeLabel;html=1;align=center;verticalAlign=middle;resizable=0;points=[];" vertex="1" connectable="0" parent="oViv8RQ6QmmxBzkZSsDY-45">
          <mxGeometry x="-0.0255" y="-3" relative="1" as="geometry">
            <mxPoint as="offset" />
          </mxGeometry>
        </mxCell>
        <mxCell id="oViv8RQ6QmmxBzkZSsDY-41" value="count == 2" style="rhombus;whiteSpace=wrap;html=1;" vertex="1" parent="1">
          <mxGeometry x="214" y="740" width="80" height="80" as="geometry" />
        </mxCell>
        <mxCell id="oViv8RQ6QmmxBzkZSsDY-46" style="edgeStyle=orthogonalEdgeStyle;rounded=0;orthogonalLoop=1;jettySize=auto;html=1;entryX=0;entryY=0.5;entryDx=0;entryDy=0;exitX=0.5;exitY=0;exitDx=0;exitDy=0;" edge="1" parent="1" source="oViv8RQ6QmmxBzkZSsDY-44" target="oViv8RQ6QmmxBzkZSsDY-10">
          <mxGeometry relative="1" as="geometry">
            <Array as="points">
              <mxPoint x="94" y="370" />
            </Array>
          </mxGeometry>
        </mxCell>
        <mxCell id="oViv8RQ6QmmxBzkZSsDY-44" value="sum += n" style="whiteSpace=wrap;html=1;" vertex="1" parent="1">
          <mxGeometry x="34" y="750" width="120" height="60" as="geometry" />
        </mxCell>
      </root>
    </mxGraphModel>
  </diagram>
</mxfile>
